<svg width="24" height="25" viewBox="0 0 24 25" fill="none" xmlns="http://www.w3.org/2000/svg">
<path fill-rule="evenodd" clip-rule="evenodd" d="M23.9038 12.0054C23.9038 18.5974 18.5599 23.9412 11.9679 23.9412C5.37596 23.9412 0.0321045 18.5974 0.0321045 12.0054C0.0321045 5.41343 5.37596 0.0695801 11.9679 0.0695801C18.5599 0.0695801 23.9038 5.41343 23.9038 12.0054ZM11.9679 21.9519L6.93251 13.0001H9.6882C10.0719 13.8783 10.9482 14.4921 11.9679 14.4921C13.3413 14.4921 14.4546 13.3788 14.4546 12.0054C14.4546 10.6321 13.3413 9.51879 11.9679 9.51879C10.9482 9.51879 10.0719 10.1325 9.6882 11.0108H5.81352L3.01606 6.0375H20.9198L11.9679 21.9519Z" fill="black"/>
</svg>
